<?xml version="1.0" standalone="no"?>
<!DOCTYPE svg PUBLIC "-//W3C//DTD SVG 20010904//EN"
 "http://www.w3.org/TR/2001/REC-SVG-20010904/DTD/svg10.dtd">
<svg version="1.0" xmlns="http://www.w3.org/2000/svg"
 width="1024.000000pt" height="1024.000000pt" viewBox="0 0 1024.000000 1024.000000"
 preserveAspectRatio="xMidYMid meet">
<metadata>
Created by potrace 1.11, written by Peter Selinger 2001-2013
</metadata>
<g transform="translate(0.000000,1024.000000) scale(0.100000,-0.100000)"
fill="#000000" stroke="none">
<path d="M4820 10229 c-1260 -77 -2424 -602 -3316 -1493 -763 -764 -1263
-1735 -1434 -2789 -95 -587 -89 -1187 19 -1767 316 -1696 1477 -3127 3081
-3793 1457 -605 3131 -496 4499 293 253 146 499 318 741 518 153 127 511 486
640 642 555 670 924 1440 1090 2270 177 883 119 1789 -166 2640 -533 1585
-1836 2831 -3441 3289 -566 161 -1140 225 -1713 190z m505 -369 c711 -37 1318
-196 1935 -505 1054 -528 1898 -1471 2309 -2578 297 -800 370 -1632 221 -2492
-256 -1470 -1219 -2752 -2565 -3415 -680 -335 -1345 -490 -2105 -490 -1158 0
-2217 395 -3110 1158 -106 91 -412 400 -501 507 -371 443 -661 939 -841 1439
-161 449 -241 829 -279 1326 -89 1187 301 2395 1080 3338 130 158 458 487 611
614 533 440 1109 743 1760 927 394 111 736 160 1245 179 28 1 136 -3 240 -8z"/>
<path d="M3071 6819 c0 -1160 5 -1358 39 -1667 43 -390 210 -793 450 -1087 83
-102 252 -259 361 -337 123 -88 363 -208 516 -258 364 -118 778 -134 1183 -43
543 120 977 430 1249 890 95 162 152 297 206 483 46 160 63 274 76 500 12 212
25 2590 14 2646 l-6 34 -2044 0 -2044 0 0 -1161z m2259 666 l185 -370 399 -58
c220 -31 405 -62 413 -68 7 -6 13 -19 13 -29 0 -9 -132 -146 -294 -304 -162
-158 -293 -292 -291 -299 2 -7 22 -118 44 -247 22 -129 50 -287 61 -350 35
-197 36 -206 11 -220 -19 -10 -48 2 -239 103 -119 63 -283 149 -364 191 l-147
77 -233 -122 c-558 -292 -497 -264 -519 -242 -22 21 -28 -22 81 598 l39 220
-295 290 c-162 160 -294 298 -294 306 0 9 6 22 13 28 8 6 193 37 413 68 l399
58 180 359 c100 198 187 366 194 373 7 8 20 13 29 11 11 -2 83 -134 202 -373z
m-1297 -2304 c48 -101 83 -161 94 -164 10 -3 88 -15 173 -28 85 -12 159 -25
164 -30 6 -5 -43 -59 -120 -133 l-130 -124 29 -176 c17 -97 27 -179 23 -183
-6 -6 -272 125 -304 150 -10 8 -55 -11 -177 -74 -90 -46 -166 -82 -169 -78 -3
3 8 83 25 178 16 96 27 176 24 180 -3 3 -60 61 -127 128 -80 79 -119 126 -113
132 6 5 46 15 90 21 155 21 256 37 259 41 2 2 37 75 79 162 45 93 81 157 90
157 8 0 45 -64 90 -159z m2214 2 c42 -87 77 -160 79 -162 4 -4 127 -23 267
-42 50 -7 87 -16 87 -23 0 -6 -56 -67 -125 -136 l-125 -125 30 -174 c16 -96
27 -177 24 -180 -3 -4 -78 32 -167 77 l-162 84 -152 -81 c-84 -45 -157 -81
-164 -81 -13 0 -11 19 25 220 l25 135 -130 128 c-71 71 -127 132 -124 137 2 4
31 11 62 14 62 8 233 34 271 42 18 4 36 34 88 142 72 152 89 182 105 182 6 0
44 -71 86 -157z"/>
<path d="M1130 7338 c0 -84 21 -280 39 -376 108 -554 407 -1023 831 -1306 250
-167 503 -255 803 -282 l77 -6 0 116 c0 172 -22 208 -147 241 -188 47 -393
144 -534 250 -113 84 -261 241 -338 356 -121 180 -281 552 -281 652 0 41 28
73 77 86 25 7 248 11 626 11 l587 0 0 170 0 170 -870 0 -870 0 0 -82z"/>
<path d="M7380 7245 l0 -164 613 -3 c668 -3 643 -1 668 -61 15 -36 -11 -137
-83 -319 -94 -239 -209 -419 -373 -583 -167 -167 -352 -278 -615 -370 -163
-57 -185 -69 -206 -114 -20 -41 -30 -191 -17 -241 9 -33 10 -34 54 -32 24 2
99 14 167 28 523 104 952 410 1231 878 181 305 291 695 291 1037 l0 109 -865
0 -865 0 0 -165z"/>
<path d="M1842 6803 c127 -430 576 -839 963 -879 l65 -7 0 477 0 476 -524 0
-524 0 20 -67z"/>
<path d="M7376 6854 c-3 -9 -6 -225 -6 -480 0 -365 3 -464 13 -464 6 0 49 9
94 20 429 103 838 490 927 878 l14 62 -518 0 c-463 0 -519 -2 -524 -16z"/>
<path d="M4930 3173 c0 -299 -11 -435 -46 -583 -72 -297 -268 -559 -550 -737
-15 -9 171 -12 840 -12 l859 -1 -99 66 c-127 85 -233 180 -299 269 -121 162
-157 285 -235 810 -11 77 -23 152 -26 168 l-6 27 -219 0 c-120 0 -219 -3 -219
-7z"/>
<path d="M3134 1621 c-2 -2 -4 -111 -4 -240 0 -258 3 -271 59 -293 27 -10
3868 -12 3897 -1 12 4 14 49 14 272 l0 266 -1981 0 c-1089 0 -1983 -2 -1985
-4z"/>
</g>
</svg>
